<svg xmlns="http://www.w3.org/2000/svg" width="123.845" height="23.489" viewBox="0 0 123.845 23.489">
    <defs>
        <style>
            .cls-1{fill:#fff}
        </style>
    </defs>
    <g id="HungamaGold" transform="translate(-0.03 0.006)">
        <path id="Path_39780" d="M228.38 32.187l-.018-.165v-.163l-.018-.147-.018-.163-.037-.149-.014-.158-.018-.147-.037-.14-.037-.142-.041-.149-.034-.131-.037-.142-.057-.124-.037-.142-.057-.125-.053-.129-.06-.129-.108-.25-.071-.117-.057-.1-.069-.129-.073-.108-.073-.113-.092-.113-.064-.112-.1-.09-.073-.108-.09-.092-.092-.092-.11-.09-.09-.092-.108-.087-.23-.147-.11-.1-.11-.051-.108-.071-.126-.073-.129-.055-.129-.073-.124-.057-.126-.051-.129-.037-.145-.057-.129-.032-.147-.039-.142-.034-.3-.076-.142-.037-.163-.016-.145-.018-.165-.021-.165-.016-.163-.018h-.163l-.165-.021h-.815l-.073.021h-.31l-.073.018h-.145l-.071.016h-.149l-.071.021h-.073l-.071.018h-.179l-.076.018h-.053l-.076.018-.051.018h-.076l-.073.016-.053.018-.071.023h-.057l-.129.034-.108.016-.129.037-.108.018-.108.039-.113.034-.108.021-.11.037-.11.037-.087.034-.11.018-.092.034-.108.039-.09.037-.181.073-.11.034-.1.037-.106.037-.094.034-.108.057-.092.034-.09.055-.092.037-.087.057-.092.034-.092.055-.092.053-.092.039-.018.016 1.4 3.334.053-.055.055-.021.055-.037.055-.034.055-.041.055-.032.071-.016.053-.039.073-.037.055-.034.073-.018.055-.037.145-.073.073-.018.055-.034.055-.021.073-.023.081-.005.055-.034.073-.021.073-.018.09-.037.073-.021.073-.018.09-.018.073-.03.094-.025.09-.018.181-.032.037-.021h.016l.06-.016h.034l.053-.016h.037l.057-.021h.087l.055-.018h.076l.055-.021h.092l.051-.018h.168l.053-.014h.23l.055-.021H223l.087.021h.11l.092.014.087.018.092.021.073.018.073.021.073.016.073.037.055.016.053.034.055.039.055.034.037.039.053.037.055.053.053.032.06.06.032.055.09.092.037.053.039.037.037.055.016.057.037.034.018.053.039.055.016.057.018.053.034.055.021.071.021.055.016.076.018.071.018.071.014.073v.069l.023.078v.071l-.055-.021h-.158l-.147-.016-.147-.018h-.145L224 32.3h-.276l-.145-.023H222.5l-.11.023h-.25l-.131.016h-.131l-.126.018-.124.016-.113.021h-.126l-.126.018-.106.018-.131.016-.092.021-.11.018-.108.018-.092.034-.106.021-.1.018-.106.037-.092.018-.09.034-.11.018-.09.034-.113.039-.092.016-.09.037-.106.039-.1.037-.087.034-.11.037-.092.053-.094.034-.092.055-.11.037-.085.057-.094.053-.071.057-.094.055-.087.051-.094.055-.073.055-.092.073-.09.053-.064.079-.073.053-.092.071-.073.076-.071.073-.073.09-.073.057-.073.071-.069.092-.055.092-.078.085-.051.078-.057.094-.051.1-.057.092-.055.092-.053.11-.037.09-.053.113-.039.106-.039.108-.034.131-.034.108-.018.129-.039.11-.016.124-.018.129-.018.131-.018.129v.126l-.018.124v.583l.018.09v.23l.018.071v.152l.018.057v.069l.018.076.016.069v.073l.021.057.018.071v.051l.018.073.018.053.016.078.018.055.016.073.021.053.018.055.023.069.016.057.016.053.037.055.018.055.018.055.044.106.055.113.057.09.051.11.057.094.051.085.078.094.055.09.069.087.073.094.073.071.073.094.145.147.076.071.09.071.087.073.074.06.092.048.094.078.073.053.087.057.094.046a6.5 6.5 0 0 0 3.584.6 2.123 2.123 0 0 0 .321-.032 33.156 33.156 0 0 0 5.9-1v-8.17l-.021-.161m-3.607 5.481a11.021 11.021 0 0 1-2.273.491c-1.127.124-2.22 0-2.275-.893.016-.856.728-1.254 1.456-1.419a6.078 6.078 0 0 1 .82-.145 12.969 12.969 0 0 1 2.275.021zm-31.866-5.481l-.014-.165-.021-.163-.016-.147-.021-.163-.016-.149-.021-.158-.034-.147-.034-.145-.023-.142-.032-.149-.039-.131-.051-.142-.041-.131-.053-.142-.039-.126-.053-.129-.053-.129-.057-.131-.071-.119-.055-.117-.071-.1-.073-.129-.076-.108-.069-.113-.071-.111-.067-.108-.09-.09-.1-.108-.087-.092-.092-.092-.09-.09-.11-.092-.092-.087-.11-.076-.11-.071-.108-.1-.11-.051-.129-.071-.105-.072-.129-.055-.129-.073-.129-.057-.126-.051-.145-.037-.129-.057-.147-.032-.126-.039-.145-.034-.145-.041-.147-.034-.158-.037-.145-.016-.163-.018-.163-.021-.149-.016-.163-.018h-.162l-.179-.021h-.821l-.076.021h-.287l-.092.018h-.145l-.073.016h-.135l-.069.021h-.076l-.073.018h-.069l-.071.016h-.06l-.073.018h-.071l-.055.018-.071.018h-.055l-.076.016-.071.018-.055.023h-.071l-.11.034-.129.016-.106.037-.11.018-.108.039-.126.034-.113.021-.092.037-.106.037-.113.034-.094.018-.1.034-.094.039-.092.037-.106.034-.181.073-.11.037-.092.037-.108.034-.094.057-.092.034-.106.055-.094.04-.092.057-.094.034-.09.055-.071.053-.094.039-.018.016 1.405 3.334v-.021l.053-.034.055-.021.053-.037.057-.034.1-.073.055-.016.076-.039.057-.037.069-.034.055-.018.073-.039.145-.073.055-.018.055-.034.071-.021.053-.023.071-.011.073-.034.078-.021.071-.018.069-.037.076-.021.092-.018.071-.018.09-.03.076-.025.087-.018.184-.032.06-.021h.032l.039-.016h.06l.034-.016h.055l.055-.021h.085l.055-.018h.039l.053-.021h.11l.055-.018h.147l.055-.014h.23l.053-.021h.689l.11.021h.09l.11.014.071.018.092.021.094.018.069.021.076.016.053.037.076.016.051.034.057.039.034.034.057.039.055.037.053.053.055.032.032.06.057.055.037.039.034.053.039.053.039.037.034.055.034.057.037.034.021.053.016.055.039.057.016.053.016.055.018.071.039.055.021.076.016.071.016.071v.073l.021.069.016.078v.071l-.069-.021h-.149l-.142-.016-.131-.018h-.147l-.145-.016h-.271l-.131-.023h-1.07l-.122.023h-.257l-.129.016h-.126l-.108.018-.126.016-.129.021h-.108l-.131.018-.126.018-.106.016-.112.021-.09.018-.11.018-.11.034-.092.021-.108.018-.092.037-.087.018-.115.034-.087.018-.11.034-.09.039-.092.016-.108.044-.094.039-.087.037-.113.034-.094.037-.1.053-.094.037-.092.055-.085.037-.1.057-.092.053-.181.113-.087.051-.076.055-.09.055-.076.073-.09.053-.073.073-.087.053-.076.071-.092.076-.071.073-.076.09-.071.057-.053.071-.147.184-.057.085-.051.078-.057.094-.071.1-.039.092-.051.092-.055.11-.055.09-.076.23-.055.108-.016.131-.039.108-.034.129-.016.11-.021.124-.016.129-.018.131-.016.129-.021.126v.877l.021.067v.142l.016.078v.131l.018.069.016.076v.057l.021.073v.057l.016.071.021.051.014.073v.053l.018.078.021.055.016.073.025.053.014.055.016.069.039.057.018.053.018.055.014.055.041.055.032.108.057.113.055.09.055.11.053.094.071.085.057.094.073.09.055.087.071.094.071.071.076.094.071.071.092.076.076.071.087.071.073.073.09.06.076.048.09.078.087.053.092.057.094.046a6.407 6.407 0 0 0 3.566.6 2.171 2.171 0 0 0 .326-.016 33.588 33.588 0 0 0 5.906-1v-7.83l-.023-.181zm-3.6 5.481a11 11 0 0 1-2.28.491c-1.125.124-2.216 0-2.269-.893 0-.856.7-1.254 1.456-1.419a5.511 5.511 0 0 1 .813-.145 13.048 13.048 0 0 1 2.28.021zm25.473-6.556l-.016-.073v-.068l-.021-.076v-.147l-.016-.069-.018-.078v-.073l-.018-.071-.023-.071v-.055l-.014-.076-.021-.069-.014-.055-.021-.071-.021-.073-.018-.057-.016-.071-.016-.055-.021-.055-.021-.073-.018-.057-.037-.051-.014-.071-.055-.108-.037-.113-.057-.092-.053-.106-.055-.11-.073-.094-.053-.092-.057-.11-.071-.09-.073-.09-.055-.062-.069-.094-.073-.071-.073-.09-.087-.073-.073-.073-.083-.057-.092-.071-.071-.055-.09-.073-.092-.055-.073-.057-.092-.051-.09-.055-.092-.055-.09-.037-.092-.039-.11-.051-.092-.037-.073-.053-.11-.039-.09-.014-.092-.039-.11-.018-.09-.039-.092-.018-.108-.016-.092-.018-.09-.018-.11-.034h-.092l-.09-.018-.11-.021-.092-.016h-.092l-.108-.018-.09-.021h-.23l-.124-.016h-.475l-.129.016h-.23l-.133.021-.117.018h-.135l-.126.016-.126.021-.129.018-.126.016-.129.018-.147.037-.126.016-.131.018-.124.039-.145.034-.129.023-.156.053-.129.039-.142.034-.133.037-.145.057-.145.034-.145.039-.131.053-.142.037-.053.016-.057.018-.053.016-.055.037-.037.021-.076.016-.053.039-.037.018-.034.014-.057.021-.034.021-.057.014-.053.023-.053.034-.055.018-.055.018-.055.018-.071.021-.055.034-.071.021-.021.018a4.741 4.741 0 0 0-3.366-1.04 13.623 13.623 0 0 0-3.318.383c-1.343.324-2.638.746-3.169.918v12.89h3.561V31l.041-.021.09-.014.092-.039.09-.021.09-.016.073-.021.092-.037.071-.016.186-.039.071-.018.09-.016.076-.016.069-.021.092-.016.076-.016.071-.021.092-.018h.071l.073-.021.073-.018h.073l.071-.014h.076l.071-.021h.071l.076-.018h.071l.073-.021h.106l.076-.014h.347l.057-.016h.106l.053.016h.276l.053.014h.092l.037.021h.057l.034.018h.053l.039.021h.051l.073.032h.039l.037.021.037.018.071.021.055.032.055.037.053.034.053.039.094.09.039.039.014.021v.014l.021.021.016.034v.021l.018.034.021.018v.037l.016.037v.069l.016.039v9.922h3.554V31l.053-.021.071-.014.1-.039.087-.021.092-.016.073-.021.094-.037.09-.016.073-.014.09-.025.073-.018.09-.016.071-.016.094-.021.071-.016.076-.016.069-.021.092-.018h.071l.076-.021.069-.018h.076l.069-.014h.078l.073-.021h.071l.071-.018h.073l.071-.021h.129l.055-.014h.347l.055-.016h.108l.055.016h.269l.057.014h.09l.051.021h.032l.053.018h.037l.034.021h.057l.071.032h.037l.037.021.034.018.071.021.055.032.073.037.037.034.057.039.053.034.037.055.039.039.018.021v.014l.016.021.018.034v.021l.018.034.018.018v.037l.016.037v.069l.021.039v9.922h3.55v-9.786l-.018-.073zm-35.29-4.078a6.57 6.57 0 0 0-2.347.964 6.445 6.445 0 0 0-3.476-1.019 5.976 5.976 0 0 0-6.135 5.77 5.6 5.6 0 0 0 1.745 4.025 6 6 0 0 0-1.304 2.527c-.622 3.215.654 4.716 2.31 4.363a31.136 31.136 0 0 1 3.387-.586 13.505 13.505 0 0 1 1.492-.032 1.952 1.952 0 0 1 1.189.354 2 2 0 0 1 .365 1.5h3.587c.073-2.769-1.619-4.79-3.534-5.118a10.17 10.17 0 0 0-3.093-.092 13.623 13.623 0 0 0-1.378.289c-.23.078-.583.021-.583-.289a3.026 3.026 0 0 1 .6-1.325 5.8 5.8 0 0 0 1.366.142 5.977 5.977 0 0 0 6.154-5.754 5.384 5.384 0 0 0-.42-2.092 3.548 3.548 0 0 1 1.525-.31zm-5.823 8.138a2.425 2.425 0 1 1 0-4.843 2.424 2.424 0 1 1 0 4.843zm-25.179 2.349l-.055.018-.094.034-.087.021-.09.037-.094.014-.09.023-.073.016-.092.039-.087.016-.076.016-.094.021-.069.021-.092.018-.073.014-.092.025h-.163l-.071.021-.071.016-.094.021h-.071l-.073.016-.073.021h-.071l-.073.021h-.074l-.078.018h-.321l-.055.021h-.726l-.055-.021h-.2l-.044-.018h-.051l-.039-.021h-.053l-.037-.021h-.034l-.055-.016-.037-.021-.034-.016-.039-.021h-.069l-.074-.039-.018-.018-.039-.021-.014-.021-.041-.016-.016-.016-.073-.078-.016-.014-.051-.057-.023-.016v-.018l-.018-.037-.018-.016-.018-.016v-.034l-.021-.023-.016-.034v-.041l-.018-.034v-.071l-.018-.041V27.05h-3.607v9.69l.023.092v.23l.016.071v.167l.016.076v.071l.021.071v.073l.018.073v.071l.016.076.021.071v.053l.018.071.039.149.016.057.016.067.018.06.016.071.016.053.023.076.018.053.034.071.018.055.018.055.057.11.051.129.041.09.053.108.055.113.071.09.055.11.073.094.053.085.076.094.073.09.147.181.069.071.073.073.09.076.073.073.071.073.094.067.092.062.071.067.09.057.092.053.092.057.09.053.092.057.094.03.09.062.112.032.087.057.092.034.106.034.094.041.087.014.11.041.092.016.115.037.087.018.106.037.094.014.115.018.085.021.113.021h.09l.106.014.113.016h.087l.11.021.23.021h.918l.218-.021h.23l.218-.021.23-.03.218-.021.23-.039.23-.014.23-.037.218-.041.216-.053.23-.032.23-.041.216-.053.439-.106.434-.108.2-.057.23-.053.2-.057.23-.057.2-.051.2-.073.2-.055.184-.053.2-.055.494-.168V27.05h-3.6zM138.2 31l-.021-.094v-.073l-.014-.073v-.069l-.021-.076v-.071l-.018-.073-.016-.071v-.073l-.023-.076-.016-.048-.018-.076-.016-.071-.021-.073-.016-.056-.021-.071-.018-.051-.016-.073-.016-.055-.018-.076-.039-.051-.016-.069-.016-.057-.055-.11-.057-.108-.053-.11-.057-.113-.053-.108-.053-.108-.076-.094-.055-.09-.073-.108-.071-.092-.053-.073-.071-.09-.092-.092-.071-.069-.076-.094-.074-.065-.09-.076-.08-.057-.094-.076-.087-.071-.186-.106-.09-.057-.09-.053-.09-.057-.094-.053-.108-.039-.092-.037-.09-.051-.11-.041-.113-.034-.087-.018-.108-.034-.094-.018-.108-.037-.09-.018-.113-.021-.09-.016-.108-.018-.094-.018-.108-.016-.087-.018-.112-.021-.085-.011h-.11l-.092-.028h-.108l-.113-.014h-.979l-.129.014h-.126l-.129.021-.129.018h-.124l-.129.021-.147.018-.126.016-.129.037-.145.016-.131.021-.124.034-.145.021-.147.034-.126.037-.147.018-.147.034-.126.039-.147.057-.145.032V21.7h-3.622v19.483H130V30.931l.071-.037.073-.021.094-.037.087-.016.092-.014.092-.044.092-.016.071-.016.094-.037.09-.016.071-.021.087-.018.094-.021.073-.018.092-.014.073-.021.073-.018.087-.021.073-.014.076-.016h.09l.076-.023.067-.018h.076l.094-.021.071-.014h.071l.071-.018h.131l.055-.018h.179l.057-.018h.744l.055.018h.142l.057.018h.051l.039.018h.037l.053.014h.037l.051.021H134l.037.018.034.023h.039l.032.016.021.014.037.021h.018l.037.018.021.021.032.014.037.039.037.018.018.021.018.016.018.016.018.037.016.016.018.018v.025l.021.014.016.016v.018l.018.039v.016l.018.039v.021l.021.034v10.181h3.623v-9.961l-.018-.073zm27.512.383l-.021-.076v-.142l-.016-.094V31l-.018-.073v-.076l-.018-.073-.018-.051v-.073l-.018-.071-.037-.152-.016-.051-.018-.073-.016-.076-.023-.051-.018-.073-.016-.053-.018-.073-.021-.057-.016-.053-.037-.073-.018-.055-.037-.11-.053-.108-.057-.108-.053-.11-.055-.108-.055-.09-.069-.11-.06-.094-.069-.09-.076-.09-.055-.094-.076-.09-.069-.073-.094-.092-.069-.073-.076-.069-.09-.073-.071-.073-.09-.053-.075-.073-.09-.055-.1-.071-.087-.055-.181-.108-.092-.039-.09-.053-.094-.057-.087-.034-.112-.037-.09-.039-.092-.034-.113-.037-.085-.034-.117-.028-.094-.018-.092-.037-.106-.016-.09-.018-.113-.016-.09-.023-.11-.018-.09-.016-.23-.037h-.092l-.11-.018h-.106l-.23-.016-.216-.018h-.657l-.218.018-.23.016-.218.018-.218.018-.2.018-.436.073-.4.071-.224.038-.2.053-.2.037-.2.057-.2.034-.4.11-.2.053-.4.11-.181.051-.2.078-.2.053-.184.057-.179.055-.2.067-.177.06-.5.142v12.9h3.589V31l.053-.021.092-.034.145-.039.076-.037.09-.018.057-.018.071-.016.073-.039.069-.018.06-.016.071-.016.053-.021.073-.016.055-.016h.126l.053-.021.055-.018.071-.021h.051l.053-.018.076-.014h.057l.053-.021h.071l.057-.018h.073l.069-.021H160l.053-.014h.23l.051-.016h.459l.048.016h.149l.053.014h.092l.055.021h.037l.053.018.039.021h.032l.055.014.041.018h.032l.041.021.034.018.032.021.037.016.039.016.037.021.037.016.016.016.039.018.018.025.016.014.039.016.087.094.023.018.016.034.018.021v.011l.018.023.018.037.016.018v.037l.018.018v.034l.021.037v.032l.018.039v.181l.018.057V41.2h3.584v-9.5l-.016-.071z" class="cls-1" transform="translate(-104.527 -21.413)"/>
        <path id="Path_39781" d="M3.26 8.55l15.726 6.884-13.54 10.633z" class="cls-1" transform="translate(-2.488 -6.591)"/>
        <path id="Path_39782" fill="#276fb7" d="M35.381 38.959l.967-.967a5.543 5.543 0 0 1-.23-.707l-1.793-6.647L32.9 25.3l-.351-1.309c-.418-1.557-.076-2.755.8-3.371a2.188 2.188 0 0 0-.7.257.6.6 0 0 0-.064.039l-.023.014-.053.034-.037.028-.041.03-.076.06-.021.016-.06.055-.018.016a.878.878 0 0 0-.067.064 3.535 3.535 0 0 0-.84 2.526v13.777a3.64 3.64 0 0 0 .749 2.427c.95.437 2.149.128 3.283-1.004z" transform="translate(-31.31 -20.581)"/>
        <path id="Path_39783" fill="#ef5f24" d="M51.118 27.918l-5.959-3.444-5.97-3.444a3.73 3.73 0 0 0-2.461-.567c-.873.615-1.212 1.814-.794 3.368l.36 1.318a5.391 5.391 0 0 1 .73.145l6.659 1.782 5.334 1.424 1.313.351c1.554.418 2.42 1.309 2.526 2.37.406-1.145-.177-2.398-1.738-3.303z" transform="translate(-34.711 -20.43)"/>
        <path id="Path_39784" fill="#6ebd46" d="M38.277 67.07l1.428-.808.028-.016 4.5-2.611 5.97-3.444a3.652 3.652 0 0 0 1.729-1.86c-.1-1.061-.967-1.952-2.526-2.37l-1.313-.351a5.478 5.478 0 0 1-.494.567l-4.875 4.87-3.9 3.9-.967.967c-1.132 1.132-2.333 1.44-3.3 1 .799.928 2.163 1.054 3.72.156z" transform="translate(-33.783 -47.537)"/>
    </g>
</svg>
